<svg xmlns="http://www.w3.org/2000/svg" width="136" height="136" viewBox="0 0 136 136" version="1.1">
  <g fill="currentColor" fill-rule="nonzero">
    <path d="" stroke="none" />
    <path d="M 37.683 25.338 C 36.757 28.274, 36 31.168, 36 31.769 C 36 32.370, 39.599 38.856, 43.998 46.181 L 51.997 59.500 35.678 59.773 L 19.360 60.047 15.477 64.023 L 11.594 68 15.477 71.977 L 19.360 75.953 35.678 76.227 L 51.997 76.500 43.998 89.819 C 39.599 97.144, 36 103.630, 36 104.231 C 36 106.692, 39.436 116, 40.345 116 C 40.883 116, 43.757 115.233, 46.731 114.296 L 52.139 112.591 59.813 99.796 C 64.034 92.758, 67.718 87, 68 87 C 68.282 87, 71.966 92.758, 76.187 99.796 L 83.861 112.591 89.269 114.296 C 92.243 115.233, 95.117 116, 95.655 116 C 96.564 116, 100 106.692, 100 104.231 C 100 103.630, 96.401 97.144, 92.002 89.819 L 84.003 76.500 100.322 76.227 L 116.640 75.953 120.523 71.977 L 124.406 68 120.523 64.023 L 116.640 60.047 100.322 59.773 L 84.003 59.500 92.002 46.181 C 96.401 38.856, 100 32.370, 100 31.769 C 100 29.308, 96.564 20, 95.655 20 C 95.117 20, 92.243 20.767, 89.269 21.704 L 83.861 23.409 76.187 36.204 C 71.966 43.242, 68.282 49, 68 49 C 67.718 49, 64.034 43.242, 59.813 36.204 L 52.139 23.409 46.731 21.704 C 43.757 20.767, 40.883 20, 40.345 20 C 39.806 20, 38.608 22.402, 37.683 25.338" stroke="none" />
  </g>
</svg>
